<svg xmlns="http://www.w3.org/2000/svg" viewBox="0 0 200 80"><defs><style>.cls-1,.cls-6{fill:#fff;}.cls-1{opacity:0.9;}.cls-2{fill:#f7c99f;}.cls-3{fill:#c6a081;}.cls-4{fill:#782408;}.cls-5{fill:#a63929;}</style></defs><g id="Layer_2" data-name="Layer 2"><g id="Layer_1-2" data-name="Layer 1"><rect class="cls-1" width="200" height="80" rx="5"/><circle class="cls-2" cx="33.92" cy="44.36" r="21.82"/><path class="cls-3" d="M19.63,27.9A21.8,21.8,0,0,0,50.38,58.65,21.8,21.8,0,1,1,19.63,27.9Z"/><path class="cls-4" d="M36.1,59.64a6.55,6.55,0,0,1-6.55-6.55H42.64A6.54,6.54,0,0,1,36.1,59.64Z"/><path class="cls-5" d="M30.62,56.65a6.47,6.47,0,0,1,9.45,1.61,6.47,6.47,0,0,1-9.45-1.61Z"/><path class="cls-6" d="M40.94,53.09a6.47,6.47,0,0,1-9.69,0Z"/><path class="cls-3" d="M38.32,47.87a3.88,3.88,0,0,0,3-3.14,1.66,1.66,0,0,1,.5.84c.31,1.31-1.14,2.76-3.23,3.25s-4-.18-4.33-1.49a1.7,1.7,0,0,1,.08-1A3.88,3.88,0,0,0,38.32,47.87Z"/><circle class="cls-6" cx="47.01" cy="39.19" r="4.36"/><path class="cls-3" d="M47,35.7a4.34,4.34,0,0,0-4.32,3.92,3,3,0,0,1,0-.43,4.37,4.37,0,1,1,8.73,0c0,.15,0,.29,0,.43A4.35,4.35,0,0,0,47,35.7Z"/><circle cx="45.48" cy="39.19" r="2.18"/><circle class="cls-6" cx="44.93" cy="38.64" r="0.55"/><circle class="cls-6" cx="27.7" cy="39.19" r="4.36"/><path class="cls-3" d="M27.7,35.7A4.35,4.35,0,0,1,32,39.62c0-.14,0-.28,0-.43a4.37,4.37,0,1,0-8.73,0,3,3,0,0,0,.05.43A4.34,4.34,0,0,1,27.7,35.7Z"/><circle cx="29.22" cy="39.19" r="2.18"/><circle class="cls-6" cx="29.77" cy="38.64" r="0.55"/><path d="M55.74,30.27,45,30.94a46.88,46.88,0,0,1-10.58-.54l-7.83-1.31h0A46,46,0,0,1,15.9,40.36l-2.43,1.82s-2.18.19-2.18-4.36c0-12,12-21.82,24-21.82A21.82,21.82,0,0,1,55.74,30.27"/><path class="cls-3" d="M7.74,46.55a4.36,4.36,0,0,0,8.72,0c0-2.41-2.82-6.11-5.23-6.11S7.74,44.14,7.74,46.55Z"/><path class="cls-2" d="M8.64,45.79a4.37,4.37,0,1,0,8.73,0c0-2.41-2.83-6.11-5.24-6.11S8.64,43.38,8.64,45.79Z"/><path d="M25.82,16.46c.14-1.53.83-2.71,1.54-2.64l-.54,5.51C26.12,19.27,25.67,18,25.82,16.46Z"/><path d="M24.42,17.56c1.49.32,2.58,1.15,2.43,1.84l-5.41-1.19C21.59,17.52,22.92,17.23,24.42,17.56Z"/><path d="M48.66,33.9c-1.73-.66-3.4-.68-4.27-.14a.15.15,0,0,1-.13,0l-.19-.06c-.07,0-.12-.08-.1-.12.47-1,2.59-1.23,4.79-.4s3.73,2.43,3.31,3.54l-.1,0C51.71,35.69,50.43,34.56,48.66,33.9Z"/><path d="M25.5,33.92c1.74-.66,3.41-.68,4.28-.14a.15.15,0,0,0,.13,0l.19-.07c.07,0,.11-.08.1-.12-.48-1.05-2.6-1.23-4.8-.4s-3.72,2.43-3.3,3.54l.09,0C22.46,35.71,23.74,34.58,25.5,33.92Z"/><path d="M65.72,35.18H64.47V28.79h1.25Z"/><path d="M66.6,30.61h2.23v1H66.6Zm.75,4.28a1.26,1.26,0,0,1-.28-.9v-4.7h1.2v4.4a.47.47,0,0,0,.07.26.23.23,0,0,0,.19.09h.3V35.2h-.6A1.12,1.12,0,0,1,67.35,34.89Z"/><path d="M69.47,28.79h1.21v1.57l-1.21,1.15Z"/><path d="M72.13,35.17A4.12,4.12,0,0,1,71.4,35a3,3,0,0,1-.59-.34l.74-.93a3.12,3.12,0,0,0,.69.33,2.47,2.47,0,0,0,.68.11,1.9,1.9,0,0,0,.66-.09c.15-.07.23-.15.23-.27a.26.26,0,0,0-.1-.23.62.62,0,0,0-.26-.11L73,33.37l-.16,0-.17,0h-.07a5,5,0,0,1-.82-.17,1,1,0,0,1-.52-.37,1.29,1.29,0,0,1-.21-.8,1.35,1.35,0,0,1,.22-.78,1.37,1.37,0,0,1,.63-.49,2.77,2.77,0,0,1,1-.17,3.26,3.26,0,0,1,.7.07,3.6,3.6,0,0,1,.66.2,3,3,0,0,1,.58.32l-.71.87a3.48,3.48,0,0,0-.63-.26,2.27,2.27,0,0,0-.62-.09,1.69,1.69,0,0,0-.57.08c-.13.06-.2.14-.2.24a.2.2,0,0,0,.11.17.66.66,0,0,0,.27.1l.46.06h.24a5.06,5.06,0,0,1,.87.16,1.13,1.13,0,0,1,.57.38,1.39,1.39,0,0,1,.23.85,1.46,1.46,0,0,1-.23.82,1.36,1.36,0,0,1-.67.51,2.76,2.76,0,0,1-1.06.18A4.15,4.15,0,0,1,72.13,35.17Z"/><path d="M79.28,35a1.82,1.82,0,0,1-.79-.81,2.86,2.86,0,0,1-.27-1.29V31.11a2.8,2.8,0,0,1,.27-1.29,1.9,1.9,0,0,1,.79-.82,2.71,2.71,0,0,1,1.25-.28,2.27,2.27,0,0,1,1.08.26,2.07,2.07,0,0,1,.78.75,3.22,3.22,0,0,1,.43,1.2H81.57a1.65,1.65,0,0,0-.21-.54A1.09,1.09,0,0,0,81,30a.94.94,0,0,0-.47-.12,1.12,1.12,0,0,0-.57.14,1,1,0,0,0-.37.41,1.56,1.56,0,0,0-.12.64v1.75a1.56,1.56,0,0,0,.12.64,1,1,0,0,0,.37.4,1.12,1.12,0,0,0,.57.14.95.95,0,0,0,.83-.46,1.45,1.45,0,0,0,.21-.54h1.25a3.23,3.23,0,0,1-.43,1.19,2.09,2.09,0,0,1-1.86,1A2.59,2.59,0,0,1,79.28,35Z"/><path d="M83.83,28.79H85v6.39H83.83Zm2.64,3.62a.74.74,0,0,0-.19-.52.78.78,0,0,0-.55-.18.66.66,0,0,0-.51.19.71.71,0,0,0-.18.52l-.1-1a1.81,1.81,0,0,1,.5-.65,1.18,1.18,0,0,1,.72-.21,1.38,1.38,0,0,1,1.12.48,2.18,2.18,0,0,1,.39,1.38v2.77h-1.2Z"/><path d="M88.79,28.79H90V30H88.79Zm0,1.82H90v4.57H88.79Z"/><path d="M91.12,30.61h1.2v4.57h-1.2Zm2.64,1.8a.7.7,0,0,0-.2-.52.73.73,0,0,0-.54-.18.66.66,0,0,0-.51.19.68.68,0,0,0-.19.52l-.09-1a1.7,1.7,0,0,1,.5-.65,1.18,1.18,0,0,1,.72-.21,1.35,1.35,0,0,1,1.11.48,2.12,2.12,0,0,1,.4,1.38v2.77h-1.2Z"/><path d="M97,35a1.6,1.6,0,0,1-.71-.7A2.32,2.32,0,0,1,96,33.2v-.52a2.54,2.54,0,0,1,.24-1.15,1.63,1.63,0,0,1,.69-.73A2.13,2.13,0,0,1,98,30.55a1.76,1.76,0,0,1,1,.3,1.81,1.81,0,0,1,.64.87,3.7,3.7,0,0,1,.23,1.37v.3H96.8v-.82h2l0-.1a1.06,1.06,0,0,0-.24-.61.74.74,0,0,0-.54-.22.87.87,0,0,0-.67.26,1.06,1.06,0,0,0-.24.74v.58a1,1,0,0,0,.26.72,1,1,0,0,0,.73.25,1.61,1.61,0,0,0,.48-.08,1.43,1.43,0,0,0,.43-.25l.79.7a2.5,2.5,0,0,1-.8.5,2.41,2.41,0,0,1-.9.18A2.48,2.48,0,0,1,97,35Z"/><path d="M101.92,35.17a4.12,4.12,0,0,1-.73-.21,3,3,0,0,1-.59-.34l.74-.93A3.12,3.12,0,0,0,102,34a2.47,2.47,0,0,0,.68.11,1.9,1.9,0,0,0,.66-.09c.15-.07.23-.15.23-.27a.26.26,0,0,0-.1-.23.62.62,0,0,0-.26-.11l-.44-.06-.16,0-.17,0h-.07a5,5,0,0,1-.82-.17,1,1,0,0,1-.52-.37,1.29,1.29,0,0,1-.21-.8,1.35,1.35,0,0,1,.22-.78,1.37,1.37,0,0,1,.63-.49,2.77,2.77,0,0,1,1-.17,3.26,3.26,0,0,1,.7.07,3.6,3.6,0,0,1,.66.2,3,3,0,0,1,.58.32l-.71.87a3.48,3.48,0,0,0-.63-.26,2.27,2.27,0,0,0-.62-.09,1.69,1.69,0,0,0-.57.08c-.13.06-.2.14-.2.24a.2.2,0,0,0,.11.17.66.66,0,0,0,.27.1l.46.06H103a4.88,4.88,0,0,1,.87.16,1.13,1.13,0,0,1,.57.38,1.39,1.39,0,0,1,.23.85,1.46,1.46,0,0,1-.23.82,1.36,1.36,0,0,1-.67.51,2.76,2.76,0,0,1-1.06.18A4.15,4.15,0,0,1,101.92,35.17Z"/><path d="M106.47,35a1.62,1.62,0,0,1-.72-.7,2.32,2.32,0,0,1-.24-1.1v-.52a2.54,2.54,0,0,1,.23-1.15,1.68,1.68,0,0,1,.69-.73,2.17,2.17,0,0,1,1.09-.25,1.75,1.75,0,0,1,1,.3,1.89,1.89,0,0,1,.65.87,3.93,3.93,0,0,1,.22,1.37v.3h-3.12v-.82h2v-.1a1.14,1.14,0,0,0-.25-.61.7.7,0,0,0-.53-.22.88.88,0,0,0-.68.26,1.06,1.06,0,0,0-.24.74v.58a1,1,0,0,0,.26.72,1,1,0,0,0,.73.25,1.61,1.61,0,0,0,.48-.08,1.43,1.43,0,0,0,.43-.25l.79.7a2.4,2.4,0,0,1-.8.5,2.37,2.37,0,0,1-.9.18A2.41,2.41,0,0,1,106.47,35Z"/><path d="M113,28.79h1.47l2.38,4.89-.11.12v-5h1.15v6.38h-1.48L114,30.35l.11-.11v4.93H113Z"/><path d="M120,35a1.6,1.6,0,0,1-.71-.7,2.21,2.21,0,0,1-.25-1.1v-.52a2.68,2.68,0,0,1,.23-1.15,1.68,1.68,0,0,1,.69-.73,2.17,2.17,0,0,1,1.09-.25,1.71,1.71,0,0,1,1,.3,1.83,1.83,0,0,1,.65.87,3.71,3.71,0,0,1,.22,1.37v.3h-3.12v-.82h2v-.1a1,1,0,0,0-.25-.61.7.7,0,0,0-.53-.22.9.9,0,0,0-.68.26,1.06,1.06,0,0,0-.24.74v.58a1,1,0,0,0,.26.72,1,1,0,0,0,.74.25,1.61,1.61,0,0,0,.48-.08,1.56,1.56,0,0,0,.43-.25l.78.7a2.59,2.59,0,0,1-1.69.68A2.45,2.45,0,0,1,120,35Z"/><path d="M123.44,30.61h1.15l.81,2.82,1-2.82h.71l1,2.82.81-2.82H130l-1.4,4.57h-.9l-1-3-1,3h-.9Z"/><path d="M135.46,32.71v2.47h-1.21V32.71l-1.88-3.92h1.26l1.23,2.75,1.22-2.75h1.26Z"/><path d="M138.17,35a1.68,1.68,0,0,1-.72-.7,2.32,2.32,0,0,1-.24-1.1v-.52a2.68,2.68,0,0,1,.23-1.15,1.68,1.68,0,0,1,.69-.73,2.17,2.17,0,0,1,1.09-.25,1.73,1.73,0,0,1,1,.3,1.89,1.89,0,0,1,.65.87,3.71,3.71,0,0,1,.22,1.37v.3H138v-.82h2v-.1a1.07,1.07,0,0,0-.25-.61.7.7,0,0,0-.53-.22.9.9,0,0,0-.68.26,1.06,1.06,0,0,0-.24.74v.58a1,1,0,0,0,.26.72,1,1,0,0,0,.73.25,1.51,1.51,0,0,0,.48-.08,1.31,1.31,0,0,0,.43-.25l.79.7a2.4,2.4,0,0,1-.8.5,2.33,2.33,0,0,1-.9.18A2.44,2.44,0,0,1,138.17,35Z"/><path d="M142.31,34.89a1.4,1.4,0,0,1-.36-1.06,1.23,1.23,0,0,1,.4-1,1.85,1.85,0,0,1,1.22-.34h1.14l.07.92h-1.2a.65.65,0,0,0-.41.1.42.42,0,0,0-.14.33.37.37,0,0,0,.17.33,1,1,0,0,0,.52.11,1.87,1.87,0,0,0,.72-.11.36.36,0,0,0,.24-.34l.09.66a.63.63,0,0,1-.23.42,1.39,1.39,0,0,1-.5.26,2.61,2.61,0,0,1-.64.08A1.49,1.49,0,0,1,142.31,34.89Zm2.37-2.61a.55.55,0,0,0-.22-.48.88.88,0,0,0-.59-.17,1.51,1.51,0,0,0-.51.08,1.53,1.53,0,0,0-.44.23l-.75-.73a1.81,1.81,0,0,1,.72-.49,2.86,2.86,0,0,1,1-.17,2.41,2.41,0,0,1,1,.2,1.42,1.42,0,0,1,.65.58,1.86,1.86,0,0,1,.22.91v2.94h-1.09Z"/><path d="M147,30.61h1.3v4.57H147Zm2.36,1.14a1,1,0,0,0-.3,0,.71.71,0,0,0-.56.23,1,1,0,0,0-.2.66l-.1-1.19a1.67,1.67,0,0,1,.49-.63,1,1,0,0,1,.67-.23,1.36,1.36,0,0,1,.51.09,1.11,1.11,0,0,1,.4.26l-.7,1A.6.6,0,0,0,149.31,31.75Z"/><path d="M150.8,28.79H152v4.48h-1.2Zm0,5.18H152v1.21h-1.2Z"/><path d="M64.56,39.59h1.21V46H64.56Zm.54,5.23h3.74V46H65.1Z"/><path d="M70.46,45.8a1.6,1.6,0,0,1-.71-.7A2.21,2.21,0,0,1,69.5,44v-.52a2.54,2.54,0,0,1,.24-1.15,1.6,1.6,0,0,1,.68-.73,2.17,2.17,0,0,1,1.09-.25,1.71,1.71,0,0,1,1,.3,1.83,1.83,0,0,1,.65.87,3.71,3.71,0,0,1,.22,1.37v.3H70.28v-.82h2l0-.1a1,1,0,0,0-.25-.61.7.7,0,0,0-.53-.22.86.86,0,0,0-.67.26,1.06,1.06,0,0,0-.24.74V44a.94.94,0,0,0,.26.72,1,1,0,0,0,.73.25,1.61,1.61,0,0,0,.48-.08,1.43,1.43,0,0,0,.43-.25l.79.7a2.44,2.44,0,0,1-.81.5,2.32,2.32,0,0,1-.89.18A2.45,2.45,0,0,1,70.46,45.8Z"/><path d="M74.11,41.41h2.23v1H74.11Zm.75,4.28a1.26,1.26,0,0,1-.28-.9v-4.7h1.2v4.4a.4.4,0,0,0,.07.26.22.22,0,0,0,.19.09h.3V46h-.61A1.09,1.09,0,0,1,74.86,45.69Z"/><path d="M77,39.59h1.2v1.57L77,42.31Z"/><path d="M79.64,46a4.12,4.12,0,0,1-.73-.21,2.85,2.85,0,0,1-.6-.34l.75-.93a2.85,2.85,0,0,0,.68.33,2.48,2.48,0,0,0,.69.11,1.94,1.94,0,0,0,.66-.09c.15-.07.23-.15.23-.27a.29.29,0,0,0-.1-.23.68.68,0,0,0-.26-.11l-.45-.06-.16,0-.16,0h-.08A4.67,4.67,0,0,1,79.3,44a1,1,0,0,1-.52-.37,1.23,1.23,0,0,1-.22-.8,1.43,1.43,0,0,1,.22-.78,1.39,1.39,0,0,1,.64-.49,2.57,2.57,0,0,1,1-.17,3.23,3.23,0,0,1,.69.07,3.6,3.6,0,0,1,.66.2,3,3,0,0,1,.59.32l-.72.87a3,3,0,0,0-.62-.26,2.39,2.39,0,0,0-.63-.09,1.62,1.62,0,0,0-.56.08c-.14.06-.2.14-.2.24a.19.19,0,0,0,.1.17.66.66,0,0,0,.27.1l.47.06h.24a4.75,4.75,0,0,1,.86.16,1.13,1.13,0,0,1,.57.38,1.32,1.32,0,0,1,.24.85,1.46,1.46,0,0,1-.23.82,1.4,1.4,0,0,1-.67.51,2.8,2.8,0,0,1-1.06.18A4.07,4.07,0,0,1,79.64,46Z"/><path d="M86.34,45.81a1.45,1.45,0,0,1-.52-.68,2.8,2.8,0,0,1-.18-1.06v-.73a2.91,2.91,0,0,1,.18-1.08,1.45,1.45,0,0,1,.52-.68,1.5,1.5,0,0,1,.83-.23,1.1,1.1,0,0,1,.67.22,1.49,1.49,0,0,1,.48.61l-.09,1a.93.93,0,0,0-.08-.39.56.56,0,0,0-.23-.25.7.7,0,0,0-.37-.09.62.62,0,0,0-.52.24,1,1,0,0,0-.19.64v.73a.93.93,0,0,0,.19.63.64.64,0,0,0,.52.23.7.7,0,0,0,.37-.09.49.49,0,0,0,.23-.24.86.86,0,0,0,.08-.38l.06,1a1.16,1.16,0,0,1-.43.58,1.19,1.19,0,0,1-.69.2A1.5,1.5,0,0,1,86.34,45.81Zm.07,1.83a1.61,1.61,0,0,1-.66-.54l.81-.74a1,1,0,0,0,.37.26,1.12,1.12,0,0,0,.44.09A.9.9,0,0,0,88,46.5a.72.72,0,0,0,.24-.57V41.41h1.21v4.43a2.27,2.27,0,0,1-.24,1.08,1.64,1.64,0,0,1-.7.68,2.53,2.53,0,0,1-1.11.23A2.35,2.35,0,0,1,86.41,47.64Z"/><path d="M90.62,41.41h1.29V46H90.62ZM93,42.55a.85.85,0,0,0-.29,0,.75.75,0,0,0-.57.23,1,1,0,0,0-.2.66l-.09-1.19a1.79,1.79,0,0,1,.49-.64,1.07,1.07,0,0,1,.66-.22,1.42,1.42,0,0,1,.52.09,1.2,1.2,0,0,1,.4.26l-.7,1A.55.55,0,0,0,93,42.55Z"/><path d="M95.2,45.8a1.6,1.6,0,0,1-.71-.7,2.21,2.21,0,0,1-.25-1.1v-.52a2.54,2.54,0,0,1,.24-1.15,1.6,1.6,0,0,1,.68-.73,2.2,2.2,0,0,1,1.09-.25,1.71,1.71,0,0,1,1,.3,1.83,1.83,0,0,1,.65.87,3.7,3.7,0,0,1,.23,1.37v.3H95v-.82h2l0-.1a1,1,0,0,0-.25-.61.7.7,0,0,0-.53-.22.87.87,0,0,0-.67.26,1.06,1.06,0,0,0-.24.74V44a.94.94,0,0,0,.26.72,1,1,0,0,0,.73.25,1.61,1.61,0,0,0,.48-.08,1.43,1.43,0,0,0,.43-.25l.79.7a2.5,2.5,0,0,1-.8.5,2.41,2.41,0,0,1-.9.18A2.48,2.48,0,0,1,95.2,45.8Z"/><path d="M100,45.8a1.68,1.68,0,0,1-.72-.7,2.32,2.32,0,0,1-.24-1.1v-.52a2.68,2.68,0,0,1,.23-1.15,1.68,1.68,0,0,1,.69-.73,2.17,2.17,0,0,1,1.09-.25,1.73,1.73,0,0,1,1,.3,1.89,1.89,0,0,1,.65.87,3.71,3.71,0,0,1,.22,1.37v.3H99.85v-.82h2v-.1a1.07,1.07,0,0,0-.25-.61.7.7,0,0,0-.53-.22.9.9,0,0,0-.68.26,1.06,1.06,0,0,0-.24.74V44a1,1,0,0,0,.26.72,1,1,0,0,0,.73.25,1.51,1.51,0,0,0,.48-.08,1.31,1.31,0,0,0,.43-.25l.79.7a2.4,2.4,0,0,1-.8.5,2.33,2.33,0,0,1-.9.18A2.44,2.44,0,0,1,100,45.8Z"/><path d="M103.67,41.41h2.24v1h-2.24Zm.75,4.28a1.31,1.31,0,0,1-.28-.9v-4.7h1.21v4.4a.48.48,0,0,0,.06.26.24.24,0,0,0,.2.09h.3V46h-.61A1.12,1.12,0,0,1,104.42,45.69Z"/><path d="M109.38,41.41h1.2V46h-1.2ZM112,43.34a.88.88,0,0,0-.2-.61.7.7,0,0,0-.56-.22.69.69,0,0,0-.52.19.71.71,0,0,0-.18.52l-.09-1a1.65,1.65,0,0,1,.5-.64,1.18,1.18,0,0,1,.72-.22,1.44,1.44,0,0,1,.82.23,1.4,1.4,0,0,1,.53.68,2.91,2.91,0,0,1,.18,1.08V46H112Zm2.65,0a.88.88,0,0,0-.19-.61.77.77,0,0,0-1.07,0,.82.82,0,0,0-.19.59L113,42.25a1.69,1.69,0,0,1,.56-.67,1.36,1.36,0,0,1,.76-.23,1.56,1.56,0,0,1,.85.23,1.46,1.46,0,0,1,.53.68,2.91,2.91,0,0,1,.18,1.08V46h-1.21Z"/><path d="M116.47,41.41h1.13l1.54,4-.76,1Zm4.21,0-2,5.63a1.39,1.39,0,0,1-.28.5.91.91,0,0,1-.42.26,2.1,2.1,0,0,1-.61.08h-.27V46.71h.27a.53.53,0,0,0,.32-.09.52.52,0,0,0,.2-.27l1.69-4.94Z"/><path d="M124.29,45.81a1.39,1.39,0,0,1-.52-.68,2.61,2.61,0,0,1-.19-1.06v-.73a2.71,2.71,0,0,1,.19-1.08,1.39,1.39,0,0,1,.52-.68,1.5,1.5,0,0,1,.83-.23,1.07,1.07,0,0,1,.66.22,1.51,1.51,0,0,1,.49.61l-.09,1a.93.93,0,0,0-.08-.39.56.56,0,0,0-.23-.25.72.72,0,0,0-.37-.09.61.61,0,0,0-.52.24,1,1,0,0,0-.19.64v.73a.93.93,0,0,0,.19.63.63.63,0,0,0,.52.23.72.72,0,0,0,.37-.09.49.49,0,0,0,.23-.24.86.86,0,0,0,.08-.38l.06,1a1.22,1.22,0,0,1-.43.58,1.24,1.24,0,0,1-.69.2A1.5,1.5,0,0,1,124.29,45.81Zm.07,1.83a1.58,1.58,0,0,1-.67-.54l.81-.74a1.18,1.18,0,0,0,.37.26,1.17,1.17,0,0,0,.45.09.91.91,0,0,0,.62-.21.72.72,0,0,0,.24-.57V41.41h1.2v4.43a2.27,2.27,0,0,1-.24,1.08,1.59,1.59,0,0,1-.7.68,2.46,2.46,0,0,1-1.11.23A2.33,2.33,0,0,1,124.36,47.64Z"/><path d="M128.57,41.41h1.29V46h-1.29Zm2.35,1.14a.91.91,0,0,0-.3,0,.71.71,0,0,0-.56.23,1,1,0,0,0-.2.66l-.09-1.19a1.68,1.68,0,0,1,.49-.64,1.07,1.07,0,0,1,.66-.22,1.46,1.46,0,0,1,.52.09,1.31,1.31,0,0,1,.4.26l-.71,1A.52.52,0,0,0,130.92,42.55Z"/><path d="M132.55,45.69a1.4,1.4,0,0,1-.36-1.06,1.23,1.23,0,0,1,.41-1,1.83,1.83,0,0,1,1.22-.34H135l.06.92h-1.2a.67.67,0,0,0-.41.1.41.41,0,0,0-.14.33.35.35,0,0,0,.18.33,1,1,0,0,0,.52.11,1.78,1.78,0,0,0,.71-.11.36.36,0,0,0,.24-.34l.09.66a.6.6,0,0,1-.23.42,1.39,1.39,0,0,1-.5.26,2.59,2.59,0,0,1-.63.08A1.5,1.5,0,0,1,132.55,45.69Zm2.37-2.61a.57.57,0,0,0-.21-.48.89.89,0,0,0-.6-.17,1.42,1.42,0,0,0-.5.08,1.59,1.59,0,0,0-.45.23l-.75-.73a2,2,0,0,1,.72-.49,2.87,2.87,0,0,1,1-.17,2.41,2.41,0,0,1,1,.2,1.44,1.44,0,0,1,.64.58A1.75,1.75,0,0,1,136,43V46h-1.09Z"/><path d="M137.2,41.41h1.2V46h-1.2Zm2.64,1.8a.7.7,0,0,0-.2-.52.73.73,0,0,0-.54-.18.66.66,0,0,0-.51.19.68.68,0,0,0-.19.52l-.09-1a1.7,1.7,0,0,1,.5-.65,1.18,1.18,0,0,1,.72-.21,1.35,1.35,0,0,1,1.11.48,2.12,2.12,0,0,1,.4,1.38V46h-1.2Z"/><path d="M142.8,45.81a1.46,1.46,0,0,1-.53-.68,2.8,2.8,0,0,1-.18-1.06v-.73a2.91,2.91,0,0,1,.18-1.08,1.46,1.46,0,0,1,.53-.68,1.5,1.5,0,0,1,.83-.23,1.07,1.07,0,0,1,.66.22,1.51,1.51,0,0,1,.49.61l-.09,1a.93.93,0,0,0-.08-.39.56.56,0,0,0-.23-.25.72.72,0,0,0-.37-.09.64.64,0,0,0-.53.24,1,1,0,0,0-.18.64v.73a1,1,0,0,0,.18.63.66.66,0,0,0,.53.23.72.72,0,0,0,.37-.09.49.49,0,0,0,.23-.24.86.86,0,0,0,.08-.38l.06,1a1.29,1.29,0,0,1-.43.58,1.24,1.24,0,0,1-.69.2A1.5,1.5,0,0,1,142.8,45.81Zm1.89-6.22h1.2V46h-1.2Z"/><path d="M147.08,41.41h1.2v6.42h-1.2Zm1.57,4.43a1.22,1.22,0,0,1-.43-.58l.06-1a.86.86,0,0,0,.08.38.49.49,0,0,0,.23.24.7.7,0,0,0,.37.09.64.64,0,0,0,.52-.23.93.93,0,0,0,.19-.63v-.73a1,1,0,0,0-.19-.64.62.62,0,0,0-.52-.24.7.7,0,0,0-.37.09.56.56,0,0,0-.23.25.93.93,0,0,0-.08.39l-.09-1a1.43,1.43,0,0,1,.49-.61,1.07,1.07,0,0,1,.66-.22,1.5,1.5,0,0,1,.83.23,1.45,1.45,0,0,1,.52.68,2.91,2.91,0,0,1,.18,1.08v.73a2.8,2.8,0,0,1-.18,1.06,1.45,1.45,0,0,1-.52.68,1.5,1.5,0,0,1-.83.23A1.19,1.19,0,0,1,148.65,45.84Z"/><path d="M152.12,45.69a1.4,1.4,0,0,1-.37-1.06,1.23,1.23,0,0,1,.41-1,1.85,1.85,0,0,1,1.22-.34h1.14l.06.92h-1.2a.64.64,0,0,0-.4.1.41.41,0,0,0-.14.33A.37.37,0,0,0,153,45a1,1,0,0,0,.52.11,1.87,1.87,0,0,0,.72-.11.36.36,0,0,0,.23-.34l.1.66a.63.63,0,0,1-.23.42,1.39,1.39,0,0,1-.5.26,2.61,2.61,0,0,1-.64.08A1.47,1.47,0,0,1,152.12,45.69Zm2.36-2.61a.57.57,0,0,0-.21-.48.88.88,0,0,0-.59-.17,1.47,1.47,0,0,0-.51.08,1.41,1.41,0,0,0-.44.23L152,42a1.81,1.81,0,0,1,.72-.49,2.86,2.86,0,0,1,1-.17,2.41,2.41,0,0,1,1,.2,1.47,1.47,0,0,1,.65.58,1.86,1.86,0,0,1,.22.91V46h-1.1Z"/><path d="M156.76,41.41h1.3V46h-1.3Zm2.35,1.14a.85.85,0,0,0-.29,0,.71.71,0,0,0-.56.23,1,1,0,0,0-.2.66l-.1-1.19a1.79,1.79,0,0,1,.49-.64,1.07,1.07,0,0,1,.66-.22,1.42,1.42,0,0,1,.52.09,1.2,1.2,0,0,1,.4.26l-.7,1A.55.55,0,0,0,159.11,42.55Z"/><path d="M161.35,45.8a1.62,1.62,0,0,1-.72-.7,2.32,2.32,0,0,1-.24-1.1v-.52a2.54,2.54,0,0,1,.23-1.15,1.68,1.68,0,0,1,.69-.73,2.16,2.16,0,0,1,1.08-.25,1.76,1.76,0,0,1,1,.3,1.89,1.89,0,0,1,.65.87,3.93,3.93,0,0,1,.22,1.37v.3h-3.12v-.82h2v-.1a1.14,1.14,0,0,0-.25-.61.72.72,0,0,0-.54-.22.87.87,0,0,0-.67.26,1.06,1.06,0,0,0-.24.74V44a1,1,0,0,0,.26.72,1,1,0,0,0,.73.25,1.61,1.61,0,0,0,.48-.08,1.43,1.43,0,0,0,.43-.25l.79.7a2.5,2.5,0,0,1-.8.5,2.54,2.54,0,0,1-2-.06Z"/><path d="M165.34,41.41h1.21V46h-1.21Zm2.64,1.8a.74.74,0,0,0-.19-.52.78.78,0,0,0-.55-.18.66.66,0,0,0-.51.19.71.71,0,0,0-.18.52l-.1-1a1.81,1.81,0,0,1,.5-.65,1.18,1.18,0,0,1,.72-.21,1.38,1.38,0,0,1,1.12.48,2.18,2.18,0,0,1,.39,1.38V46H168Z"/><path d="M170,41.41h2.23v1H170Zm.75,4.28a1.26,1.26,0,0,1-.28-.9v-4.7h1.2v4.4a.4.4,0,0,0,.07.26.22.22,0,0,0,.19.09h.3V46h-.61A1.09,1.09,0,0,1,170.77,45.69Z"/><path d="M174.25,46a4,4,0,0,1-.72-.21,2.85,2.85,0,0,1-.6-.34l.74-.93a3.12,3.12,0,0,0,.69.33,2.48,2.48,0,0,0,.69.11,1.84,1.84,0,0,0,.65-.09c.16-.07.24-.15.24-.27a.29.29,0,0,0-.1-.23.68.68,0,0,0-.26-.11l-.45-.06-.16,0-.16,0h-.08a4.67,4.67,0,0,1-.81-.17,1,1,0,0,1-.53-.37,1.29,1.29,0,0,1-.21-.8,1.35,1.35,0,0,1,.22-.78,1.39,1.39,0,0,1,.64-.49,2.54,2.54,0,0,1,1-.17,3.23,3.23,0,0,1,.69.07,3.6,3.6,0,0,1,.66.2,3,3,0,0,1,.59.32l-.72.87a3,3,0,0,0-.62-.26,2.39,2.39,0,0,0-.63-.09,1.62,1.62,0,0,0-.56.08q-.21.09-.21.24a.2.2,0,0,0,.11.17.66.66,0,0,0,.27.1l.47.06h.23a4.71,4.71,0,0,1,.87.16,1.13,1.13,0,0,1,.57.38,1.32,1.32,0,0,1,.23.85,1.31,1.31,0,0,1-.89,1.33,2.83,2.83,0,0,1-1.06.18A4.25,4.25,0,0,1,174.25,46Z"/><path d="M178,39.59h1.21v4.48H178Zm0,5.18h1.21V46H178Z"/><polygon points="192.22 64.38 180.22 57.58 180.22 71.18 192.22 64.38"/><path d="M150.48,59.5h2.09l3.38,7-.15.17V59.5h1.64v9.08h-2.11L152,61.73l.15-.17v7h-1.63Z"/><path d="M160.49,68.34a2.3,2.3,0,0,1-1-1,3.22,3.22,0,0,1-.35-1.57v-.73a3.76,3.76,0,0,1,.33-1.65,2.4,2.4,0,0,1,1-1A3.19,3.19,0,0,1,162,62a2.49,2.49,0,0,1,1.46.42,2.69,2.69,0,0,1,.92,1.24,5.38,5.38,0,0,1,.32,2v.43h-4.44V64.89h2.87v-.15a1.52,1.52,0,0,0-.36-.87,1,1,0,0,0-.76-.31,1.27,1.27,0,0,0-1,.37,1.54,1.54,0,0,0-.34,1.05v.82a1.37,1.37,0,0,0,.38,1,1.41,1.41,0,0,0,1,.36,2,2,0,0,0,.68-.12,2.06,2.06,0,0,0,.61-.35l1.12,1a3.79,3.79,0,0,1-1.14.72,3.38,3.38,0,0,1-1.27.25A3.48,3.48,0,0,1,160.49,68.34Z"/><path d="M167.66,65l1,1.17-1.5,2.41h-1.82Zm.31.9-2.51-3.81h1.89l1.56,2.62,2.54,3.87h-1.88Zm.3-1.51,1.19-2.3h1.89l-2.08,3.5Z"/><path d="M172.11,62.1h3.17v1.46h-3.17Zm1.06,6.09a1.88,1.88,0,0,1-.39-1.29V60.21h1.71v6.27a.6.6,0,0,0,.09.36.33.33,0,0,0,.28.13h.42v1.65h-.86A1.62,1.62,0,0,1,173.17,68.19Z"/></g></g></svg>