<svg xmlns="http://www.w3.org/2000/svg" viewBox="0 0 200 80"><defs><style>.cls-1,.cls-6{fill:#fff;}.cls-1{opacity:0.9;}.cls-2{fill:#f7c99f;}.cls-3{fill:#c6a081;}.cls-4{fill:#782408;}.cls-5{fill:#a63929;}</style></defs><g id="Layer_2" data-name="Layer 2"><g id="Layer_1-2" data-name="Layer 1"><rect class="cls-1" width="200" height="80" rx="5"/><circle class="cls-2" cx="33.92" cy="44.36" r="21.82"/><path class="cls-3" d="M19.63,27.9A21.8,21.8,0,0,0,50.38,58.65,21.8,21.8,0,1,1,19.63,27.9Z"/><path class="cls-4" d="M36.1,59.64a6.55,6.55,0,0,1-6.55-6.55H42.64A6.54,6.54,0,0,1,36.1,59.64Z"/><path class="cls-5" d="M30.62,56.65a6.47,6.47,0,0,1,9.45,1.61,6.47,6.47,0,0,1-9.45-1.61Z"/><path class="cls-6" d="M40.94,53.09a6.47,6.47,0,0,1-9.69,0Z"/><path class="cls-3" d="M38.32,47.87a3.88,3.88,0,0,0,3-3.14,1.66,1.66,0,0,1,.5.84c.31,1.31-1.14,2.76-3.23,3.25s-4-.18-4.33-1.49a1.7,1.7,0,0,1,.08-1A3.88,3.88,0,0,0,38.32,47.87Z"/><circle class="cls-6" cx="47.01" cy="39.19" r="4.36"/><path class="cls-3" d="M47,35.7a4.34,4.34,0,0,0-4.32,3.92,3,3,0,0,1,0-.43,4.37,4.37,0,1,1,8.73,0c0,.15,0,.29,0,.43A4.35,4.35,0,0,0,47,35.7Z"/><circle cx="45.48" cy="39.19" r="2.18"/><circle class="cls-6" cx="44.93" cy="38.64" r="0.55"/><circle class="cls-6" cx="27.7" cy="39.19" r="4.36"/><path class="cls-3" d="M27.7,35.7A4.35,4.35,0,0,1,32,39.62c0-.14,0-.28,0-.43a4.37,4.37,0,1,0-8.73,0,3,3,0,0,0,.05.43A4.34,4.34,0,0,1,27.7,35.7Z"/><circle cx="29.22" cy="39.19" r="2.18"/><circle class="cls-6" cx="29.77" cy="38.64" r="0.55"/><path d="M55.74,30.27,45,30.94a46.88,46.88,0,0,1-10.58-.54l-7.83-1.31h0A46,46,0,0,1,15.9,40.36l-2.43,1.82s-2.18.19-2.18-4.36c0-12,12-21.82,24-21.82A21.82,21.82,0,0,1,55.74,30.27"/><path class="cls-3" d="M7.74,46.55a4.36,4.36,0,0,0,8.72,0c0-2.41-2.82-6.11-5.23-6.11S7.74,44.14,7.74,46.55Z"/><path class="cls-2" d="M8.64,45.79a4.37,4.37,0,1,0,8.73,0c0-2.41-2.83-6.11-5.24-6.11S8.64,43.38,8.64,45.79Z"/><path d="M25.82,16.46c.14-1.53.83-2.71,1.54-2.64l-.54,5.51C26.12,19.27,25.67,18,25.82,16.46Z"/><path d="M24.42,17.56c1.49.32,2.58,1.15,2.43,1.84l-5.41-1.19C21.59,17.52,22.92,17.23,24.42,17.56Z"/><path d="M48.66,33.9c-1.73-.66-3.4-.68-4.27-.14a.15.15,0,0,1-.13,0l-.19-.06c-.07,0-.12-.08-.1-.12.47-1,2.59-1.23,4.79-.4s3.73,2.43,3.31,3.54l-.1,0C51.71,35.69,50.43,34.56,48.66,33.9Z"/><path d="M25.5,33.92c1.74-.66,3.41-.68,4.28-.14a.15.15,0,0,0,.13,0l.19-.07c.07,0,.11-.08.1-.12-.48-1.05-2.6-1.23-4.8-.4s-3.72,2.43-3.3,3.54l.09,0C22.46,35.71,23.74,34.58,25.5,33.92Z"/><path d="M69.11,28.26v1.25a2.65,2.65,0,0,1-.29,1.25,2,2,0,0,1-.82.84,2.42,2.42,0,0,1-1.22.3,2.69,2.69,0,0,1-1.23-.28,2,2,0,0,1-.83-.79,2.4,2.4,0,0,1-.29-1.18V27.76a2.65,2.65,0,0,1,.29-1.25,2,2,0,0,1,.81-.84,2.44,2.44,0,0,1,1.23-.3,2.31,2.31,0,0,1,1,.24,2.28,2.28,0,0,1,.81.67,2.34,2.34,0,0,1,.43,1h-1.3a.77.77,0,0,0-.22-.35.91.91,0,0,0-.35-.22,1.25,1.25,0,0,0-.42-.08,1.15,1.15,0,0,0-.57.14,1,1,0,0,0-.38.4,1.29,1.29,0,0,0-.13.6v1.89a1,1,0,0,0,.13.52.91.91,0,0,0,.39.36,1.34,1.34,0,0,0,.58.12,1.15,1.15,0,0,0,.57-.14,1,1,0,0,0,.38-.39,1.4,1.4,0,0,0,.13-.6v-.1h-1V28.26Z"/><path d="M70.29,27.27h1.29v4.56H70.29Zm2.35,1.14a.84.84,0,0,0-.29-.05.72.72,0,0,0-.57.24,1,1,0,0,0-.2.65l-.09-1.19a1.67,1.67,0,0,1,.49-.63,1.08,1.08,0,0,1,.66-.23,1.42,1.42,0,0,1,.52.09,1.09,1.09,0,0,1,.4.27l-.7,1A.54.54,0,0,0,72.64,28.41Z"/><path d="M74.28,31.55a1.4,1.4,0,0,1-.37-1.06,1.25,1.25,0,0,1,.41-1,1.85,1.85,0,0,1,1.22-.34h1.14l.06.92h-1.2a.64.64,0,0,0-.4.11.37.37,0,0,0-.14.33.39.39,0,0,0,.17.33,1,1,0,0,0,.52.1,1.69,1.69,0,0,0,.72-.11.35.35,0,0,0,.23-.34l.1.67a.63.63,0,0,1-.23.41,1.25,1.25,0,0,1-.5.26,2.2,2.2,0,0,1-.64.09A1.52,1.52,0,0,1,74.28,31.55Zm2.36-2.61a.59.59,0,0,0-.21-.49,1,1,0,0,0-.6-.17,1.74,1.74,0,0,0-.5.08,1.43,1.43,0,0,0-.44.24l-.75-.74a1.69,1.69,0,0,1,.72-.48,2.64,2.64,0,0,1,1-.18,2.41,2.41,0,0,1,1,.2,1.53,1.53,0,0,1,.65.58,1.9,1.9,0,0,1,.22.92v2.93h-1.1Z"/><path d="M78.92,27.27h1.21v4.56H78.92Zm2.64,1.8a.67.67,0,0,0-.19-.52.73.73,0,0,0-.54-.19.67.67,0,0,0-.52.19.71.71,0,0,0-.18.52l-.1-1a1.77,1.77,0,0,1,.5-.64,1.12,1.12,0,0,1,.72-.22,1.35,1.35,0,0,1,1.12.49,2.13,2.13,0,0,1,.39,1.37v2.77h-1.2Z"/><path d="M84.52,31.66A1.42,1.42,0,0,1,84,31a2.85,2.85,0,0,1-.18-1.07v-.73A2.85,2.85,0,0,1,84,28.12a1.4,1.4,0,0,1,.52-.68,1.42,1.42,0,0,1,.83-.24,1.14,1.14,0,0,1,.67.22,1.52,1.52,0,0,1,.48.62l-.09,1a.82.82,0,0,0-.08-.4.56.56,0,0,0-.23-.25.8.8,0,0,0-.36-.08.65.65,0,0,0-.53.23,1,1,0,0,0-.19.65v.72a1,1,0,0,0,.19.64.67.67,0,0,0,.53.22.8.8,0,0,0,.36-.08.56.56,0,0,0,.23-.25.74.74,0,0,0,.08-.38l.06,1a1.12,1.12,0,0,1-.43.58,1.13,1.13,0,0,1-.69.21A1.42,1.42,0,0,1,84.52,31.66Zm1.89-6.22h1.21v6.39H86.41Z"/><path d="M88.8,27.27H90v6.41H88.8Zm1.58,4.42a1.12,1.12,0,0,1-.43-.58l.06-1a.74.74,0,0,0,.08.38.56.56,0,0,0,.23.25.8.8,0,0,0,.36.08.68.68,0,0,0,.53-.22,1,1,0,0,0,.19-.64V29.2a1,1,0,0,0-.19-.65.66.66,0,0,0-.53-.23.8.8,0,0,0-.36.08.56.56,0,0,0-.23.25.82.82,0,0,0-.08.4l-.1-1a1.63,1.63,0,0,1,.49-.62,1.14,1.14,0,0,1,.67-.22,1.39,1.39,0,0,1,.82.24,1.42,1.42,0,0,1,.53.68,2.85,2.85,0,0,1,.18,1.07v.73A2.85,2.85,0,0,1,92.42,31a1.44,1.44,0,0,1-.53.67,1.39,1.39,0,0,1-.82.24A1.13,1.13,0,0,1,90.38,31.69Z"/><path d="M93.84,31.55a1.43,1.43,0,0,1-.36-1.06,1.25,1.25,0,0,1,.4-1,1.87,1.87,0,0,1,1.22-.34h1.15l.06.92h-1.2a.67.67,0,0,0-.41.11.39.39,0,0,0-.14.33.38.38,0,0,0,.18.33,1,1,0,0,0,.51.1,1.64,1.64,0,0,0,.72-.11.35.35,0,0,0,.24-.34l.09.67a.59.59,0,0,1-.23.41,1.25,1.25,0,0,1-.5.26,2.18,2.18,0,0,1-.63.09A1.54,1.54,0,0,1,93.84,31.55Zm2.37-2.61a.59.59,0,0,0-.21-.49,1,1,0,0,0-.6-.17,1.81,1.81,0,0,0-.51.08,1.7,1.7,0,0,0-.44.24l-.75-.74a1.69,1.69,0,0,1,.72-.48,2.66,2.66,0,0,1,1-.18,2.47,2.47,0,0,1,1,.2,1.5,1.5,0,0,1,.64.58,1.79,1.79,0,0,1,.22.92v2.93H96.21Z"/><path d="M98.49,25.44h1.2v4.49h-1.2Zm0,5.19h1.2v1.2h-1.2Z"/><path d="M108,28.26v1.25a2.54,2.54,0,0,1-.29,1.25,2,2,0,0,1-.81.84,2.42,2.42,0,0,1-1.22.3,2.73,2.73,0,0,1-1.24-.28,2,2,0,0,1-.82-.79,2.3,2.3,0,0,1-.29-1.18V27.76a2.65,2.65,0,0,1,.28-1.25,2.14,2.14,0,0,1,.82-.84,2.42,2.42,0,0,1,1.22-.3,2.39,2.39,0,0,1,1.06.24,2.16,2.16,0,0,1,.8.67,2.35,2.35,0,0,1,.44,1h-1.3a1,1,0,0,0-.22-.35,1,1,0,0,0-.36-.22,1.16,1.16,0,0,0-.42-.08,1.13,1.13,0,0,0-.56.14,1,1,0,0,0-.38.4,1.3,1.3,0,0,0-.14.6v1.89a1,1,0,0,0,.14.52.91.91,0,0,0,.39.36,1.31,1.31,0,0,0,.58.12,1.2,1.2,0,0,0,.57-.14.93.93,0,0,0,.37-.39,1.26,1.26,0,0,0,.13-.6v-.1h-1V28.26Z"/><path d="M109.16,27.27h1.29v4.56h-1.29Zm2.35,1.14a.9.9,0,0,0-.3-.05.68.68,0,0,0-.56.24,1,1,0,0,0-.2.65l-.09-1.19a1.57,1.57,0,0,1,.49-.63,1.08,1.08,0,0,1,.66-.23,1.46,1.46,0,0,1,.52.09,1.18,1.18,0,0,1,.4.27l-.71,1A.5.5,0,0,0,111.51,28.41Z"/><path d="M113.14,31.55a1.43,1.43,0,0,1-.36-1.06,1.22,1.22,0,0,1,.41-1,1.82,1.82,0,0,1,1.21-.34h1.15l.06.92h-1.2a.67.67,0,0,0-.41.11.39.39,0,0,0-.14.33.38.38,0,0,0,.18.33,1,1,0,0,0,.51.1,1.64,1.64,0,0,0,.72-.11.35.35,0,0,0,.24-.34l.09.67a.59.59,0,0,1-.23.41,1.25,1.25,0,0,1-.5.26,2.18,2.18,0,0,1-.63.09A1.54,1.54,0,0,1,113.14,31.55Zm2.37-2.61a.59.59,0,0,0-.21-.49,1,1,0,0,0-.6-.17,1.81,1.81,0,0,0-.51.08,1.7,1.7,0,0,0-.44.24l-.75-.74a1.69,1.69,0,0,1,.72-.48,2.66,2.66,0,0,1,1-.18,2.44,2.44,0,0,1,1,.2,1.5,1.5,0,0,1,.64.58,1.79,1.79,0,0,1,.22.92v2.93h-1.09Z"/><path d="M117.79,27.27H119v4.56h-1.2Zm2.64,1.8a.67.67,0,0,0-.2-.52.7.7,0,0,0-.54-.19.66.66,0,0,0-.51.19.68.68,0,0,0-.19.52l-.09-1a1.66,1.66,0,0,1,.5-.64,1.12,1.12,0,0,1,.72-.22,1.33,1.33,0,0,1,1.11.49,2.07,2.07,0,0,1,.4,1.37v2.77h-1.2Z"/><path d="M123.39,31.66a1.44,1.44,0,0,1-.53-.67,2.85,2.85,0,0,1-.18-1.07v-.73a2.85,2.85,0,0,1,.18-1.07,1.4,1.4,0,0,1,1.36-.92,1.14,1.14,0,0,1,.66.22,1.54,1.54,0,0,1,.49.62l-.09,1a1,1,0,0,0-.08-.4.56.56,0,0,0-.23-.25.84.84,0,0,0-.37-.08.66.66,0,0,0-.53.23,1,1,0,0,0-.18.65v.72a1,1,0,0,0,.18.64.68.68,0,0,0,.53.22.84.84,0,0,0,.37-.08.56.56,0,0,0,.23-.25.86.86,0,0,0,.08-.38l.06,1a1.23,1.23,0,0,1-.43.58,1.17,1.17,0,0,1-.69.21A1.42,1.42,0,0,1,123.39,31.66Zm1.89-6.22h1.2v6.39h-1.2Z"/><path d="M127.67,27.27h1.2v4.56h-1.2Zm2.66,1.93a.91.91,0,0,0-.2-.62.74.74,0,0,0-.56-.22.69.69,0,0,0-.52.19.71.71,0,0,0-.18.52l-.09-1a1.65,1.65,0,0,1,.5-.64,1.25,1.25,0,0,1,.72-.22,1.4,1.4,0,0,1,1.35.92,2.85,2.85,0,0,1,.18,1.07v2.64h-1.2Zm2.66,0a.91.91,0,0,0-.2-.62.68.68,0,0,0-.54-.22.66.66,0,0,0-.53.21.84.84,0,0,0-.19.59l-.22-1.05a1.63,1.63,0,0,1,.56-.67,1.29,1.29,0,0,1,.76-.24,1.49,1.49,0,0,1,.85.24,1.42,1.42,0,0,1,.53.68,2.85,2.85,0,0,1,.18,1.07v2.64H133Z"/><path d="M135.52,31.55a1.43,1.43,0,0,1-.36-1.06,1.25,1.25,0,0,1,.4-1,1.85,1.85,0,0,1,1.22-.34h1.14l.07.92h-1.2a.65.65,0,0,0-.41.11.39.39,0,0,0-.14.33.39.39,0,0,0,.17.33,1,1,0,0,0,.52.1,1.69,1.69,0,0,0,.72-.11.35.35,0,0,0,.24-.34l.09.67a.63.63,0,0,1-.23.41,1.25,1.25,0,0,1-.5.26,2.2,2.2,0,0,1-.64.09A1.53,1.53,0,0,1,135.52,31.55Zm2.37-2.61a.57.57,0,0,0-.22-.49.94.94,0,0,0-.59-.17,1.81,1.81,0,0,0-.51.08,1.55,1.55,0,0,0-.44.24l-.75-.74a1.69,1.69,0,0,1,.72-.48,2.64,2.64,0,0,1,1-.18,2.41,2.41,0,0,1,1,.2,1.48,1.48,0,0,1,.65.58,1.9,1.9,0,0,1,.22.92v2.93h-1.09Z"/><path d="M140.17,25.44h1.2v4.49h-1.2Zm0,5.19h1.2v1.2h-1.2Z"/><path d="M65.72,42.63H64.47V36.24h1.25Z"/><path d="M69,38.07h1.16l.81,2.82,1-2.82h.71l1,2.82.81-2.82h1.16l-1.41,4.56h-.89l-1-3-1,3h-.9Z"/><path d="M76.26,36.24h1.21v1.2H76.26Zm0,1.83h1.21v4.56H76.26Z"/><path d="M79.54,42.62a4.12,4.12,0,0,1-.73-.21,2.6,2.6,0,0,1-.59-.34l.74-.93a3.12,3.12,0,0,0,.69.33,2.14,2.14,0,0,0,.68.11,1.94,1.94,0,0,0,.66-.09c.15-.06.23-.15.23-.26a.3.3,0,0,0-.1-.24.78.78,0,0,0-.26-.11l-.44-.06h-.16l-.17,0H80a5,5,0,0,1-.82-.16,1.07,1.07,0,0,1-.52-.37,1.56,1.56,0,0,1,0-1.58,1.28,1.28,0,0,1,.63-.5,2.77,2.77,0,0,1,1-.17,4.05,4.05,0,0,1,.7.07,4.6,4.6,0,0,1,.66.2,3.6,3.6,0,0,1,.58.32l-.71.88a2.47,2.47,0,0,0-.63-.26,2.35,2.35,0,0,0-.62-.1,1.44,1.44,0,0,0-.57.09c-.13,0-.2.13-.2.23a.18.18,0,0,0,.11.18.88.88,0,0,0,.26.09l.47.06h.24a5.06,5.06,0,0,1,.87.16,1,1,0,0,1,.56.39,1.29,1.29,0,0,1,.24.85,1.43,1.43,0,0,1-.23.81,1.37,1.37,0,0,1-.67.52,2.76,2.76,0,0,1-1.06.18A4.15,4.15,0,0,1,79.54,42.62Z"/><path d="M83.26,36.24h1.2v6.39h-1.2Zm2.63,3.63a.67.67,0,0,0-.19-.52.73.73,0,0,0-.54-.19.68.68,0,0,0-.52.19.71.71,0,0,0-.18.52l-.09-1a1.75,1.75,0,0,1,.49-.64,1.15,1.15,0,0,1,.73-.22,1.33,1.33,0,0,1,1.11.49,2.07,2.07,0,0,1,.4,1.37v2.77H85.89Z"/><path d="M90.22,38.07h1.13l1.53,4-.76,1Zm4.21,0-2,5.63a1.5,1.5,0,0,1-.28.49.91.91,0,0,1-.42.26,1.84,1.84,0,0,1-.61.08h-.27V43.36h.27a.63.63,0,0,0,.32-.08.55.55,0,0,0,.2-.28l1.69-4.93Z"/><path d="M95.73,42.46a1.52,1.52,0,0,1-.67-.68,2.2,2.2,0,0,1-.23-1.07V40a2.16,2.16,0,0,1,.23-1.06,1.57,1.57,0,0,1,.67-.68,2.58,2.58,0,0,1,2.13,0,1.52,1.52,0,0,1,.67.68A2.16,2.16,0,0,1,98.76,40v.75a2.23,2.23,0,0,1-.23,1.07,1.5,1.5,0,0,1-.67.67,2.48,2.48,0,0,1-2.13,0Zm1.63-1.14a.85.85,0,0,0,.2-.6V40a.85.85,0,0,0-.2-.6.77.77,0,0,0-.57-.21.73.73,0,0,0-.56.21.85.85,0,0,0-.2.6v.75a.85.85,0,0,0,.2.6.74.74,0,0,0,.56.22A.78.78,0,0,0,97.36,41.32Z"/><path d="M101,40.84a.69.69,0,0,0,.18.51.74.74,0,0,0,.53.19.7.7,0,0,0,.52-.19.74.74,0,0,0,.18-.53l.06,1a1.35,1.35,0,0,1-.42.63,1.08,1.08,0,0,1-.72.26,1.41,1.41,0,0,1-1.14-.48,2,2,0,0,1-.4-1.33V38.07H101Zm1.41-2.77h1.2v4.56h-1.2Z"/><path d="M107.32,42.35a1.44,1.44,0,0,1-.36-1.07,1.24,1.24,0,0,1,.4-1,1.85,1.85,0,0,1,1.22-.34h1.14l.07.92h-1.2a.65.65,0,0,0-.41.11.39.39,0,0,0-.14.32.4.4,0,0,0,.17.34,1,1,0,0,0,.52.1,1.69,1.69,0,0,0,.72-.11.35.35,0,0,0,.24-.34l.09.67a.63.63,0,0,1-.23.41,1.25,1.25,0,0,1-.5.26,2.2,2.2,0,0,1-.64.09A1.53,1.53,0,0,1,107.32,42.35Zm2.37-2.61a.6.6,0,0,0-.22-.49.94.94,0,0,0-.59-.17,1.81,1.81,0,0,0-.51.08,1.55,1.55,0,0,0-.44.24l-.75-.74a1.69,1.69,0,0,1,.72-.48,2.64,2.64,0,0,1,1-.18,2.41,2.41,0,0,1,1,.2,1.48,1.48,0,0,1,.65.58,1.9,1.9,0,0,1,.22.92v2.93h-1.09Z"/><path d="M114.47,36.24h1.2v6.39h-1.2Zm.56,2.64h3.72V40H115ZM118,36.24h1.2v6.39H118Z"/><path d="M120.63,42.35a1.44,1.44,0,0,1-.36-1.07,1.25,1.25,0,0,1,.41-1,1.85,1.85,0,0,1,1.22-.34H123l.06.92h-1.2a.67.67,0,0,0-.41.11.38.38,0,0,0-.13.32.37.37,0,0,0,.17.34,1,1,0,0,0,.52.1,1.69,1.69,0,0,0,.72-.11.35.35,0,0,0,.23-.34l.09.67a.58.58,0,0,1-.22.41,1.32,1.32,0,0,1-.5.26,2.25,2.25,0,0,1-.64.09A1.56,1.56,0,0,1,120.63,42.35ZM123,39.74a.59.59,0,0,0-.21-.49,1,1,0,0,0-.6-.17,1.69,1.69,0,0,0-.5.08,1.61,1.61,0,0,0-.45.24l-.74-.74a1.69,1.69,0,0,1,.72-.48,2.64,2.64,0,0,1,1-.18,2.41,2.41,0,0,1,1,.2,1.45,1.45,0,0,1,.64.58,1.79,1.79,0,0,1,.23.92v2.93H123Z"/><path d="M125.28,38.07h1.21v6.41h-1.21Zm1.57,4.42a1.23,1.23,0,0,1-.43-.58l.07-1a.86.86,0,0,0,.07.38.62.62,0,0,0,.23.25.87.87,0,0,0,.37.08.68.68,0,0,0,.53-.22,1,1,0,0,0,.18-.64V40a1,1,0,0,0-.18-.65.66.66,0,0,0-.53-.23.87.87,0,0,0-.37.08.62.62,0,0,0-.23.25,1,1,0,0,0-.07.4l-.1-1a1.56,1.56,0,0,1,.49-.62,1.07,1.07,0,0,1,.66-.22,1.4,1.4,0,0,1,1.36.92,2.85,2.85,0,0,1,.18,1.07v.73a2.85,2.85,0,0,1-.18,1.07,1.44,1.44,0,0,1-.53.67,1.4,1.4,0,0,1-.83.24A1.17,1.17,0,0,1,126.85,42.49Z"/><path d="M130.18,38.07h1.2v6.41h-1.2Zm1.57,4.42a1.17,1.17,0,0,1-.43-.58l.06-1a.86.86,0,0,0,.08.38.56.56,0,0,0,.23.25.81.81,0,0,0,.37.08.66.66,0,0,0,.52-.22,1,1,0,0,0,.19-.64V40a1,1,0,0,0-.19-.65.64.64,0,0,0-.52-.23.81.81,0,0,0-.37.08.56.56,0,0,0-.23.25,1,1,0,0,0-.08.4l-.09-1a1.4,1.4,0,0,1,.49-.62,1.07,1.07,0,0,1,.66-.22,1.42,1.42,0,0,1,.83.24,1.4,1.4,0,0,1,.52.68A2.85,2.85,0,0,1,134,40v.73a2.85,2.85,0,0,1-.18,1.07,1.38,1.38,0,0,1-1.35.91A1.13,1.13,0,0,1,131.75,42.49Z"/><path d="M134.41,38.07h1.14l1.53,4-.76,1Zm4.22,0-2,5.63a1.35,1.35,0,0,1-.29.49.93.93,0,0,1-.41.26,1.87,1.87,0,0,1-.62.08H135V43.36h.26a.67.67,0,0,0,.33-.08.54.54,0,0,0,.19-.28l1.69-4.93Z"/><path d="M141.75,36.24h1.47l2.38,4.9-.11.11v-5h1.15v6.39h-1.48l-2.37-4.83.11-.11v4.94h-1.15Z"/><path d="M148.79,42.46a1.65,1.65,0,0,1-.71-.7,2.28,2.28,0,0,1-.25-1.11v-.51a2.58,2.58,0,0,1,.24-1.16,1.6,1.6,0,0,1,.68-.73,2.28,2.28,0,0,1,1.09-.25,1.71,1.71,0,0,1,1,.3,1.83,1.83,0,0,1,.65.87,3.75,3.75,0,0,1,.22,1.37v.3h-3.12V40h2v-.11a1,1,0,0,0-.25-.61.69.69,0,0,0-.53-.21.86.86,0,0,0-.68.26,1,1,0,0,0-.24.73v.58a.94.94,0,0,0,.27.72,1,1,0,0,0,.73.26,1.36,1.36,0,0,0,.48-.09,1.82,1.82,0,0,0,.43-.24l.78.69a2.48,2.48,0,0,1-.8.51,2.32,2.32,0,0,1-.89.18A2.45,2.45,0,0,1,148.79,42.46Z"/><path d="M152.22,38.07h1.15l.81,2.82,1-2.82h.71l1,2.82.8-2.82h1.16l-1.41,4.56h-.89l-1-3-1,3h-.9Z"/><path d="M164.24,40.16v2.47H163V40.16l-1.88-3.92h1.26L163.64,39l1.22-2.75h1.26Z"/><path d="M167,42.46a1.74,1.74,0,0,1-.72-.7,2.39,2.39,0,0,1-.24-1.11v-.51a2.73,2.73,0,0,1,.23-1.16,1.68,1.68,0,0,1,.69-.73A2.28,2.28,0,0,1,168,38a1.73,1.73,0,0,1,1,.3,1.89,1.89,0,0,1,.65.87,3.75,3.75,0,0,1,.22,1.37v.3h-3.12V40h2v-.11a1.1,1.1,0,0,0-.25-.61.69.69,0,0,0-.53-.21.86.86,0,0,0-.68.26,1,1,0,0,0-.24.73v.58a1,1,0,0,0,.26.72,1,1,0,0,0,.73.26,1.28,1.28,0,0,0,.48-.09,1.7,1.7,0,0,0,.44-.24l.78.69a2.6,2.6,0,0,1-.8.51,2.33,2.33,0,0,1-.9.18A2.44,2.44,0,0,1,167,42.46Z"/><path d="M171.09,42.35a1.44,1.44,0,0,1-.36-1.07,1.24,1.24,0,0,1,.4-1,1.85,1.85,0,0,1,1.22-.34h1.14l.07.92h-1.2A.65.65,0,0,0,172,41a.39.39,0,0,0-.14.32.4.4,0,0,0,.17.34,1,1,0,0,0,.52.1,1.69,1.69,0,0,0,.72-.11.34.34,0,0,0,.23-.34l.1.67a.63.63,0,0,1-.23.41,1.25,1.25,0,0,1-.5.26,2.2,2.2,0,0,1-.64.09A1.53,1.53,0,0,1,171.09,42.35Zm2.36-2.61a.59.59,0,0,0-.21-.49.94.94,0,0,0-.59-.17,1.81,1.81,0,0,0-.51.08,1.43,1.43,0,0,0-.44.24l-.75-.74a1.69,1.69,0,0,1,.72-.48,2.64,2.64,0,0,1,1-.18,2.41,2.41,0,0,1,1,.2,1.53,1.53,0,0,1,.65.58,1.9,1.9,0,0,1,.22.92v2.93h-1.1Z"/><path d="M175.74,38.07H177v4.56h-1.29Zm2.35,1.14a.94.94,0,0,0-.3-.05.68.68,0,0,0-.56.24.92.92,0,0,0-.2.65l-.1-1.19a1.67,1.67,0,0,1,.49-.63,1.13,1.13,0,0,1,.67-.23,1.36,1.36,0,0,1,.51.09,1,1,0,0,1,.4.27l-.7,1A.57.57,0,0,0,178.09,39.21Z"/><path d="M64.62,53.15a1.44,1.44,0,0,1-.37-1.07,1.25,1.25,0,0,1,.41-1,1.85,1.85,0,0,1,1.22-.34H67l.06.92h-1.2a.64.64,0,0,0-.4.11.39.39,0,0,0-.14.32.4.4,0,0,0,.17.34,1,1,0,0,0,.52.1,1.69,1.69,0,0,0,.72-.11.35.35,0,0,0,.23-.34l.1.67a.63.63,0,0,1-.23.41,1.25,1.25,0,0,1-.5.26,2.2,2.2,0,0,1-.64.09A1.52,1.52,0,0,1,64.62,53.15ZM67,50.54a.59.59,0,0,0-.21-.49.94.94,0,0,0-.59-.17,1.75,1.75,0,0,0-.51.08,1.43,1.43,0,0,0-.44.24l-.75-.74A1.69,1.69,0,0,1,65.2,49a2.64,2.64,0,0,1,1-.18,2.41,2.41,0,0,1,1,.2,1.53,1.53,0,0,1,.65.58,1.9,1.9,0,0,1,.22.92v2.93H67Z"/><path d="M69.26,48.87h1.21v4.56H69.26Zm2.64,1.8a.67.67,0,0,0-.19-.52.73.73,0,0,0-.54-.19.67.67,0,0,0-.52.19.71.71,0,0,0-.18.52l-.09-1a1.65,1.65,0,0,1,.49-.64,1.12,1.12,0,0,1,.72-.22,1.35,1.35,0,0,1,1.12.49,2.13,2.13,0,0,1,.4,1.37v2.77H71.9Z"/><path d="M74.86,53.26a1.48,1.48,0,0,1-.52-.67,2.85,2.85,0,0,1-.18-1.07v-.73a2.85,2.85,0,0,1,.18-1.07,1.54,1.54,0,0,1,.52-.69,1.52,1.52,0,0,1,.83-.23,1.08,1.08,0,0,1,.67.22,1.46,1.46,0,0,1,.48.62l-.09,1a.82.82,0,0,0-.08-.4.56.56,0,0,0-.23-.25.8.8,0,0,0-.36-.08.63.63,0,0,0-.53.23,1,1,0,0,0-.19.65v.72a1,1,0,0,0,.19.64.68.68,0,0,0,.53.22.8.8,0,0,0,.36-.08.56.56,0,0,0,.23-.25.74.74,0,0,0,.08-.38l.06,1a1.12,1.12,0,0,1-.43.58,1.13,1.13,0,0,1-.69.21A1.45,1.45,0,0,1,74.86,53.26ZM76.75,47H78v6.39H76.75Z"/><path d="M86.19,49.86v1.25a2.54,2.54,0,0,1-.29,1.25,2,2,0,0,1-.81.84,2.42,2.42,0,0,1-1.22.3,2.73,2.73,0,0,1-1.24-.28,2,2,0,0,1-.82-.79,2.3,2.3,0,0,1-.29-1.18V49.36a2.65,2.65,0,0,1,.28-1.25,2.14,2.14,0,0,1,.82-.84,2.42,2.42,0,0,1,1.22-.3,2.39,2.39,0,0,1,1.06.24,2.24,2.24,0,0,1,.8.66,2.45,2.45,0,0,1,.44,1h-1.3a.93.93,0,0,0-.57-.57,1.26,1.26,0,0,0-.43-.08,1.13,1.13,0,0,0-.56.14,1,1,0,0,0-.38.4,1.3,1.3,0,0,0-.14.6v1.89a1,1,0,0,0,.14.52.83.83,0,0,0,.39.35,1.18,1.18,0,0,0,.58.13,1.2,1.2,0,0,0,.57-.14.93.93,0,0,0,.37-.39,1.26,1.26,0,0,0,.13-.6V51H84V49.86Z"/><path d="M88.15,53.26a1.52,1.52,0,0,1-.67-.68,2.2,2.2,0,0,1-.23-1.07v-.74a2.23,2.23,0,0,1,.23-1.07,1.6,1.6,0,0,1,.67-.67,2.58,2.58,0,0,1,2.13,0,1.55,1.55,0,0,1,.67.67,2.23,2.23,0,0,1,.23,1.07v.75A2.23,2.23,0,0,1,91,52.59a1.5,1.5,0,0,1-.67.67,2.48,2.48,0,0,1-2.13,0Zm1.63-1.14a.85.85,0,0,0,.2-.6v-.75a.85.85,0,0,0-.2-.6.77.77,0,0,0-.57-.21.73.73,0,0,0-.56.21.85.85,0,0,0-.2.6v.75a.85.85,0,0,0,.2.6.74.74,0,0,0,.56.22A.78.78,0,0,0,89.78,52.12Z"/><path d="M93.05,53.26a1.57,1.57,0,0,1-.67-.68,2.32,2.32,0,0,1-.23-1.07v-.74a2.35,2.35,0,0,1,.23-1.07,1.66,1.66,0,0,1,.67-.67,2.6,2.6,0,0,1,2.14,0,1.66,1.66,0,0,1,.67.67,2.35,2.35,0,0,1,.23,1.07v.75a2.35,2.35,0,0,1-.23,1.07,1.6,1.6,0,0,1-.67.67,2.51,2.51,0,0,1-2.14,0Zm1.63-1.14a.81.81,0,0,0,.2-.6v-.75a.81.81,0,0,0-.2-.6.74.74,0,0,0-.57-.21.71.71,0,0,0-.55.21.81.81,0,0,0-.2.6v.75a.85.85,0,0,0,.19.6.75.75,0,0,0,.56.22A.74.74,0,0,0,94.68,52.12Z"/><path d="M97.76,53.26a1.42,1.42,0,0,1-.52-.67,2.67,2.67,0,0,1-.18-1.07v-.73a2.67,2.67,0,0,1,.18-1.07,1.48,1.48,0,0,1,.52-.69,1.5,1.5,0,0,1,.83-.23,1.07,1.07,0,0,1,.66.22,1.4,1.4,0,0,1,.49.62l-.09,1a1,1,0,0,0-.08-.4.56.56,0,0,0-.23-.25.84.84,0,0,0-.37-.08.61.61,0,0,0-.52.23,1,1,0,0,0-.19.65v.72a1,1,0,0,0,.19.64.66.66,0,0,0,.52.22.84.84,0,0,0,.37-.08.56.56,0,0,0,.23-.25.86.86,0,0,0,.08-.38l.06,1a1.17,1.17,0,0,1-.43.58,1.13,1.13,0,0,1-.69.21A1.42,1.42,0,0,1,97.76,53.26ZM99.65,47h1.2v6.39h-1.2Z"/><path d="M104.54,47h1.21v6.39h-1.21Zm.56,2.64h3.72v1.16H105.1ZM108,47h1.21v6.39H108Z"/><path d="M111.39,53.26a1.65,1.65,0,0,1-.71-.7,2.28,2.28,0,0,1-.25-1.11v-.51a2.58,2.58,0,0,1,.24-1.16,1.6,1.6,0,0,1,.68-.73,2.31,2.31,0,0,1,1.09-.25,1.71,1.71,0,0,1,1,.3,1.83,1.83,0,0,1,.65.87,3.75,3.75,0,0,1,.22,1.37v.3h-3.12v-.81h2l0-.11a1,1,0,0,0-.25-.61.69.69,0,0,0-.53-.21.84.84,0,0,0-.67.26,1,1,0,0,0-.24.73v.58a.94.94,0,0,0,.26.72,1,1,0,0,0,.73.26,1.36,1.36,0,0,0,.48-.09,1.43,1.43,0,0,0,.43-.25l.79.7a2.72,2.72,0,0,1-.8.51,2.41,2.41,0,0,1-.9.18A2.45,2.45,0,0,1,111.39,53.26Z"/><path d="M115.53,53.15a1.44,1.44,0,0,1-.36-1.07,1.25,1.25,0,0,1,.41-1,1.83,1.83,0,0,1,1.22-.34h1.14l.06.92h-1.2a.67.67,0,0,0-.41.11.39.39,0,0,0-.14.32.38.38,0,0,0,.18.34,1,1,0,0,0,.52.1,1.61,1.61,0,0,0,.71-.11.35.35,0,0,0,.24-.34l.09.67a.59.59,0,0,1-.23.41,1.25,1.25,0,0,1-.5.26,2.18,2.18,0,0,1-.63.09A1.54,1.54,0,0,1,115.53,53.15Zm2.37-2.61a.59.59,0,0,0-.21-.49,1,1,0,0,0-.6-.17,1.81,1.81,0,0,0-.51.08,1.7,1.7,0,0,0-.44.24l-.75-.74a1.76,1.76,0,0,1,.72-.48,2.66,2.66,0,0,1,1-.18,2.41,2.41,0,0,1,1,.2,1.5,1.5,0,0,1,.64.58,1.79,1.79,0,0,1,.22.92v2.93H117.9Z"/><path d="M121.38,51.92a.33.33,0,0,0,.1.26.37.37,0,0,0,.27.09h.2v1.16h-.61a1.15,1.15,0,0,1-.86-.32,1.23,1.23,0,0,1-.3-.89V47h1.2Z"/><path d="M122.43,48.87h2.24v1h-2.24Zm.75,4.28a1.36,1.36,0,0,1-.28-.91v-4.7h1.21v4.4a.45.45,0,0,0,.06.26.24.24,0,0,0,.2.09h.3v1.16h-.61A1.16,1.16,0,0,1,123.18,53.15Z"/><path d="M125.72,47h1.2v6.39h-1.2Zm2.64,3.63a.7.7,0,0,0-.19-.52.74.74,0,0,0-.55-.19.66.66,0,0,0-.51.19.72.72,0,0,0-.19.52l-.09-1a1.66,1.66,0,0,1,.5-.64,1.12,1.12,0,0,1,.72-.22,1.36,1.36,0,0,1,1.12.49,2.13,2.13,0,0,1,.39,1.37v2.77h-1.2Z"/><path d="M130.75,47H132v4.49h-1.2Zm0,5.19H132v1.2h-1.2Z"/></g></g></svg>