<svg xmlns="http://www.w3.org/2000/svg" viewBox="0 0 200 80"><defs><style>.cls-1,.cls-6{fill:#fff;}.cls-1{opacity:0.9;}.cls-2{fill:#f7c99f;}.cls-3{fill:#c6a081;}.cls-4{fill:#782408;}.cls-5{fill:#a63929;}.cls-7{font-size:12.8px;font-family:DFKaiShu-SB-Estd-BF, DFKai-SB;}</style></defs><g id="Layer_2" data-name="Layer 2"><g id="Layer_1-2" data-name="Layer 1"><rect class="cls-1" width="200" height="80" rx="5"/><circle class="cls-2" cx="33.92" cy="44.36" r="21.82"/><path class="cls-3" d="M19.63,27.9A21.8,21.8,0,0,0,50.38,58.65,21.8,21.8,0,1,1,19.63,27.9Z"/><path class="cls-4" d="M36.1,59.64a6.55,6.55,0,0,1-6.55-6.55H42.64A6.54,6.54,0,0,1,36.1,59.64Z"/><path class="cls-5" d="M30.62,56.65a6.47,6.47,0,0,1,9.45,1.61,6.47,6.47,0,0,1-9.45-1.61Z"/><path class="cls-6" d="M40.94,53.09a6.47,6.47,0,0,1-9.69,0Z"/><path class="cls-3" d="M38.32,47.87a3.88,3.88,0,0,0,3-3.14,1.66,1.66,0,0,1,.5.84c.31,1.31-1.14,2.76-3.23,3.25s-4-.18-4.33-1.49a1.7,1.7,0,0,1,.08-1A3.88,3.88,0,0,0,38.32,47.87Z"/><circle class="cls-6" cx="47.01" cy="39.19" r="4.36"/><path class="cls-3" d="M47,35.7a4.34,4.34,0,0,0-4.32,3.92,3,3,0,0,1,0-.43,4.37,4.37,0,1,1,8.73,0c0,.15,0,.29,0,.43A4.35,4.35,0,0,0,47,35.7Z"/><circle cx="45.48" cy="39.19" r="2.18"/><circle class="cls-6" cx="44.93" cy="38.64" r="0.55"/><circle class="cls-6" cx="27.7" cy="39.19" r="4.36"/><path class="cls-3" d="M27.7,35.7A4.35,4.35,0,0,1,32,39.62c0-.14,0-.28,0-.43a4.37,4.37,0,1,0-8.73,0,3,3,0,0,0,.05.43A4.34,4.34,0,0,1,27.7,35.7Z"/><circle cx="29.22" cy="39.19" r="2.18"/><circle class="cls-6" cx="29.77" cy="38.64" r="0.55"/><path d="M55.74,30.27,45,30.94a46.88,46.88,0,0,1-10.58-.54l-7.83-1.31h0A46,46,0,0,1,15.9,40.36l-2.43,1.82s-2.18.19-2.18-4.36c0-12,12-21.82,24-21.82A21.82,21.82,0,0,1,55.74,30.27"/><path class="cls-3" d="M7.74,46.55a4.36,4.36,0,0,0,8.72,0c0-2.41-2.82-6.11-5.23-6.11S7.74,44.14,7.74,46.55Z"/><path class="cls-2" d="M8.64,45.79a4.37,4.37,0,1,0,8.73,0c0-2.41-2.83-6.11-5.24-6.11S8.64,43.38,8.64,45.79Z"/><path d="M25.82,16.46c.14-1.53.83-2.71,1.54-2.64l-.54,5.51C26.12,19.27,25.67,18,25.82,16.46Z"/><path d="M24.42,17.56c1.49.32,2.58,1.15,2.43,1.84l-5.41-1.19C21.59,17.52,22.92,17.23,24.42,17.56Z"/><path d="M48.66,33.9c-1.73-.66-3.4-.68-4.27-.14a.15.15,0,0,1-.13,0l-.19-.06c-.07,0-.12-.08-.1-.12.47-1,2.59-1.23,4.79-.4s3.73,2.43,3.31,3.54l-.1,0C51.71,35.69,50.43,34.56,48.66,33.9Z"/><path d="M25.5,33.92c1.74-.66,3.41-.68,4.28-.14a.15.15,0,0,0,.13,0l.19-.07c.07,0,.11-.08.1-.12-.48-1.05-2.6-1.23-4.8-.4s-3.72,2.43-3.3,3.54l.09,0C22.46,35.71,23.74,34.58,25.5,33.92Z"/><text class="cls-7" transform="translate(63.9 36.17)">爷爷奶奶 新年快乐<tspan x="0" y="15.36">身体健康 万事如意</tspan></text></g></g></svg>