<svg xmlns="http://www.w3.org/2000/svg" viewBox="0 0 80 40"><defs><style>.cls-1{fill:#e42526;}.cls-2{fill:#fff;}</style></defs><g id="Layer_2" data-name="Layer 2"><g id="Layer_1-2" data-name="Layer 1"><path class="cls-1" d="M5,0H80a0,0,0,0,1,0,0V40a0,0,0,0,1,0,0H5a5,5,0,0,1-5-5V5A5,5,0,0,1,5,0Z"/><path class="cls-2" d="M12.84,26.36a9.47,9.47,0,0,1-2-.66,7.81,7.81,0,0,1-1.68-1l1.36-2.43a6.7,6.7,0,0,0,2.09,1.14,7.37,7.37,0,0,0,2.42.41,4.35,4.35,0,0,0,2.24-.49,1.54,1.54,0,0,0,.79-1.38h0a1.33,1.33,0,0,0-.35-1,2.1,2.1,0,0,0-.92-.54,11.46,11.46,0,0,0-1.47-.31H15.2L15,20a15.6,15.6,0,0,1-2.6-.62,3.83,3.83,0,0,1-1.75-1.3,4.23,4.23,0,0,1-.72-2.64h0a4.78,4.78,0,0,1,.68-2.59,4.31,4.31,0,0,1,2-1.64,7.87,7.87,0,0,1,3.12-.56,7.79,7.79,0,0,1,1.71.19,9.58,9.58,0,0,1,3.3,1.44l-1.24,2.49a8,8,0,0,0-1.89-1,5.65,5.65,0,0,0-1.88-.35,4.1,4.1,0,0,0-2.1.45,1.39,1.39,0,0,0-.74,1.25h0a1.45,1.45,0,0,0,.39,1.07,2.28,2.28,0,0,0,1,.57,12.51,12.51,0,0,0,1.6.39l.09,0h.09l.12,0,.12,0a13.22,13.22,0,0,1,2.48.7,3.89,3.89,0,0,1,1.66,1.33A4.25,4.25,0,0,1,21,21.83v0a4.6,4.6,0,0,1-.7,2.56,4.38,4.38,0,0,1-2,1.62,8.36,8.36,0,0,1-3.22.56A9.9,9.9,0,0,1,12.84,26.36Z"/><path class="cls-2" d="M21.51,10.81H33v2.84H21.51Zm4.26,1.28h2.94V26.43H25.77Z"/><path class="cls-2" d="M38.18,10.81h1.87l6,15.62H42.86L39.12,15.76,35.38,26.43H32.21Zm-3.1,10.28H43.3v2.84H35.08Z"/><path class="cls-2" d="M48,10.8H50.9V26.43H48Zm1.17,6.51h5.44a1.41,1.41,0,0,0,1.32-.87,2.43,2.43,0,0,0,.2-1,2.22,2.22,0,0,0-.19-1,1.37,1.37,0,0,0-1.33-.87H49.13V10.8H54.8a4.33,4.33,0,0,1,2.27.58A3.87,3.87,0,0,1,58.58,13a5.3,5.3,0,0,1,.54,2.45,5.37,5.37,0,0,1-.54,2.46,3.8,3.8,0,0,1-1.52,1.63,4.3,4.3,0,0,1-2.26.59H49.13Zm3.29,2.35,3.15-.49,4.21,7.26H56.21Z"/><path class="cls-2" d="M60.15,10.81H71.6v2.84H60.15Zm4.26,1.28h2.94V26.43H64.41Z"/></g></g></svg>